<svg xmlns="http://www.w3.org/2000/svg" xmlns:svg="http://www.w3.org/2000/svg" id="svg20" width="72" height="72" fill="none" version="1.1" viewBox="0 0 72 72"><defs id="defs24"><marker style="overflow:visible" id="Arrow1Lstart" orient="auto" refX="0" refY="0"><path style="fill:context-stroke;fill-rule:evenodd;stroke:context-stroke;stroke-width:1pt" id="path5274" d="M 0,0 5,-5 -12.5,0 5,5 Z" transform="matrix(0.8,0,0,0.8,10,0)"/></marker></defs><path id="path2" stroke="#F9F9F9" stroke-linecap="square" stroke-linejoin="round" stroke-width="2" d="m 60,55 c -2.7614,0 -5,2.2386 -5,5 0,2.76142 2.2386,5 5,5 2.76142,0 5,-2.23858 5,-5 0,-2.7614 -2.23858,-5 -5,-5 z" style="fill:#11112f;fill-opacity:0;stroke:#11112f;stroke-opacity:1"/><path id="path4" stroke="#F9F9F9" stroke-linecap="square" stroke-linejoin="round" stroke-width="2" d="M 60,71 V 69" style="fill:#11112f;fill-opacity:1;stroke:#11112f;stroke-opacity:1"/><path id="path6" stroke="#F9F9F9" stroke-linecap="square" stroke-linejoin="round" stroke-width="2" d="M 60,51 V 49" style="fill:#11112f;fill-opacity:1;stroke:#11112f;stroke-opacity:1"/><path id="path8" stroke="#F9F9F9" stroke-linecap="square" stroke-linejoin="round" stroke-width="2" d="m 67.7793,67.78027 -1.42,-1.42" style="fill:#11112f;fill-opacity:1;stroke:#11112f;stroke-opacity:1"/><path id="path10" stroke="#F9F9F9" stroke-linecap="square" stroke-linejoin="round" stroke-width="2" d="m 53.6406,53.6396 -1.42,-1.42" style="fill:#11112f;fill-opacity:1;stroke:#11112f;stroke-opacity:1"/><path id="path12" stroke="#F9F9F9" stroke-linecap="square" stroke-linejoin="round" stroke-width="2" d="M 71,60 H 69" style="fill:#11112f;fill-opacity:1;stroke:#11112f;stroke-opacity:1"/><path id="path14" stroke="#F9F9F9" stroke-linecap="square" stroke-linejoin="round" stroke-width="2" d="M 51,60 H 49" style="fill:#11112f;fill-opacity:1;stroke:#11112f;stroke-opacity:1"/><path id="path16" stroke="#F9F9F9" stroke-linecap="square" stroke-linejoin="round" stroke-width="2" d="m 67.7793,52.2196 -1.42,1.42" style="fill:#11112f;fill-opacity:1;stroke:#11112f;stroke-opacity:1"/><path id="path18" stroke="#F9F9F9" stroke-linecap="square" stroke-linejoin="round" stroke-width="2" d="m 53.6406,66.36027 -1.42,1.42" style="fill:#11112f;fill-opacity:1;stroke:#11112f;stroke-opacity:1"/><path id="path2-3" stroke="#F9F9F9" stroke-linecap="square" stroke-linejoin="round" stroke-width="2" d="m 12.090024,22.707708 c 9.519907,0.0082 9.471652,-7.849441 9.471652,-7.849441 -7.833413,1.899045 -13.1655799,-4.856032 -9.857606,-11.298172 0,0 -8.2541579,-0.102952 -8.1429349,10.473053 0.04587,4.363249 4.093038,8.670779 8.5288889,8.67456 z" style="fill:#11112f;fill-opacity:0;stroke:#f5f5f7;stroke-width:3.12021;stroke-linecap:round;stroke-linejoin:miter;stroke-miterlimit:2.8;stroke-dasharray:none;stroke-opacity:1"/></svg>